# xmcd
#
# Track frame offsets:
#	150
#	14882
#	34395
#	52365
#	66445
#	77452
#	94100
#	116457
#	129225
#	138210
#	149452
#	165332
#	181982
#	194425
#	207987
#
# Disc length: 2971 seconds
#
# Revision: 1
# Processed by: cddbd v1.4PL0 Copyright (c) Steve Scherf et al.
# Submitted via: dBpowerAMP V4.0
#
DISCID=dc0b990f
DTITLE=misc - The dutch collectioin
DYEAR=1900
DGENRE=country
TTITLE0=Major 'Dundee' band - Colinda's home
TTITLE1=Moonlight riders - A love that never dies
TTITLE2=The Walkers - Oh lonesome me
TTITLE3=Toni wille - Mama
TTITLE4=Black Hills country band - bleu ridge mountain blues
TTITLE5=Lafayette - Wandering
TTITLE6=Moonlight riders - Black gold
TTITLE7=Major 'Dundee' band - Old friends
TTITLE8=Hillbilly boogiemen - One woman band
TTITLE9=Renée Innemee and The revival band - Blue moon night
TTITLE10=Alabama rain - Love is only human
TTITLE11=Louisiana radio - Bella mae
TTITLE12=Ben Stekener - How beautiful live can be
TTITLE13=Lafayette - Rodeo
TTITLE14=Wendell A Morrison - Who's he
EXTD=
EXTT0=
EXTT1=
EXTT2=
EXTT3=
EXTT4=
EXTT5=
EXTT6=
EXTT7=
EXTT8=
EXTT9=
EXTT10=
EXTT11=
EXTT12=
EXTT13=
EXTT14=
PLAYORDER=
